<svg width="21.000000" height="19.000000" viewBox="0 0 21 19" fill="none" xmlns="http://www.w3.org/2000/svg" xmlns:xlink="http://www.w3.org/1999/xlink">
	<desc>
			Created with Pixso.
	</desc>
	<defs/>
	<path id="Star 2" d="M9.38 -0.54L7.27 5.94C7.2 6.15 7.01 6.29 6.8 6.29L-0.02 6.29C-0.5 6.29 -0.71 6.91 -0.31 7.19L5.2 11.2C5.38 11.33 5.45 11.55 5.38 11.76L3.28 18.24C3.13 18.7 3.65 19.08 4.04 18.8L9.56 14.79C9.73 14.66 9.97 14.66 10.15 14.79L15.66 18.8C16.05 19.08 16.58 18.7 16.43 18.24L14.32 11.76C14.26 11.55 14.33 11.33 14.51 11.2L20.02 7.19C20.41 6.91 20.21 6.29 19.73 6.29L12.91 6.29C12.69 6.29 12.5 6.15 12.44 5.94L10.33 -0.54C10.18 -1 9.53 -1 9.38 -0.54Z" fill="#FFC700" fill-opacity="1.000000" fill-rule="evenodd"/>
</svg>
